<?xml version="1.0" encoding="UTF-8" standalone="no"?><svg xmlns="http://www.w3.org/2000/svg" xmlns:xlink="http://www.w3.org/1999/xlink" contentStyleType="text/css" height="328px" preserveAspectRatio="none" style="width:1161px;height:328px;background:#FFFFFF;" version="1.1" viewBox="0 0 1161 328" width="1161px" zoomAndPan="magnify"><defs/><g><!--MD5=[706371339d94ae8c95bd67c125269c47]
cluster std--><g id="cluster_std"><path d="M8.5,6 L32.5,6 A3.75,3.75 0 0 1 35,8.5 L42,28.4883 L1151.5,28.4883 A2.5,2.5 0 0 1 1154,30.9883 L1154,318.5 A2.5,2.5 0 0 1 1151.5,321 L8.5,321 A2.5,2.5 0 0 1 6,318.5 L6,8.5 A2.5,2.5 0 0 1 8.5,6 " fill="none" style="stroke:#000000;stroke-width:1.5;"/><line style="stroke:#000000;stroke-width:1.5;" x1="6" x2="42" y1="28.4883" y2="28.4883"/><text fill="#000000" font-family="sans-serif" font-size="14" font-weight="bold" lengthAdjust="spacing" textLength="23" x="10" y="21.5352">std</text></g><!--MD5=[a431b7e1bb4537e49fc216fce0e9e8bc]
class exception--><g id="elem_exception"><rect fill="#F1F1F1" height="48" id="exception" rx="2.5" ry="2.5" style="stroke:#181818;stroke-width:0.5;" width="100" x="531" y="41"/><ellipse cx="546" cy="57" fill="#ADD1B2" rx="11" ry="11" style="stroke:#181818;stroke-width:1.0;"/><path d="M548.4731,63.1431 Q547.8921,63.4419 547.2529,63.5913 Q546.6138,63.7407 545.9082,63.7407 Q543.4014,63.7407 542.0815,62.0889 Q540.7617,60.437 540.7617,57.3159 Q540.7617,54.1865 542.0815,52.5347 Q543.4014,50.8828 545.9082,50.8828 Q546.6138,50.8828 547.2612,51.0322 Q547.9087,51.1816 548.4731,51.4805 L548.4731,54.2031 Q547.8423,53.6221 547.2488,53.3523 Q546.6553,53.0825 546.0244,53.0825 Q544.6797,53.0825 543.9949,54.1492 Q543.3101,55.2158 543.3101,57.3159 Q543.3101,59.4077 543.9949,60.4744 Q544.6797,61.541 546.0244,61.541 Q546.6553,61.541 547.2488,61.2712 Q547.8423,61.0015 548.4731,60.4204 Z " fill="#000000"/><text fill="#000000" font-family="sans-serif" font-size="14" lengthAdjust="spacing" textLength="68" x="560" y="62.291">exception</text><line style="stroke:#181818;stroke-width:0.5;" x1="532" x2="630" y1="73" y2="73"/><line style="stroke:#181818;stroke-width:0.5;" x1="532" x2="630" y1="81" y2="81"/></g><!--MD5=[3002c79fe470faf8bf38d8e19de0f9b7]
class logic_failure--><g id="elem_logic_failure"><rect fill="#F1F1F1" height="48" id="logic_failure" rx="2.5" ry="2.5" style="stroke:#181818;stroke-width:0.5;" width="116" x="369" y="149"/><ellipse cx="384" cy="165" fill="#ADD1B2" rx="11" ry="11" style="stroke:#181818;stroke-width:1.0;"/><path d="M386.4731,171.1431 Q385.8921,171.4419 385.2529,171.5913 Q384.6138,171.7407 383.9082,171.7407 Q381.4014,171.7407 380.0815,170.0889 Q378.7617,168.437 378.7617,165.3159 Q378.7617,162.1865 380.0815,160.5347 Q381.4014,158.8828 383.9082,158.8828 Q384.6138,158.8828 385.2612,159.0322 Q385.9087,159.1816 386.4731,159.4805 L386.4731,162.2031 Q385.8423,161.6221 385.2488,161.3523 Q384.6553,161.0825 384.0244,161.0825 Q382.6797,161.0825 381.9949,162.1492 Q381.3101,163.2158 381.3101,165.3159 Q381.3101,167.4077 381.9949,168.4744 Q382.6797,169.541 384.0244,169.541 Q384.6553,169.541 385.2488,169.2712 Q385.8423,169.0015 386.4731,168.4204 Z " fill="#000000"/><text fill="#000000" font-family="sans-serif" font-size="14" lengthAdjust="spacing" textLength="84" x="398" y="170.291">logic_failure</text><line style="stroke:#181818;stroke-width:0.5;" x1="370" x2="484" y1="181" y2="181"/><line style="stroke:#181818;stroke-width:0.5;" x1="370" x2="484" y1="189" y2="189"/></g><!--MD5=[79ffcfaf85dd81de92cf27e0c300b28c]
class runtime_error--><g id="elem_runtime_error"><rect fill="#F1F1F1" height="48" id="runtime_error" rx="2.5" ry="2.5" style="stroke:#181818;stroke-width:0.5;" width="128" x="750" y="149"/><ellipse cx="765" cy="165" fill="#ADD1B2" rx="11" ry="11" style="stroke:#181818;stroke-width:1.0;"/><path d="M767.4731,171.1431 Q766.8921,171.4419 766.2529,171.5913 Q765.6138,171.7407 764.9082,171.7407 Q762.4014,171.7407 761.0815,170.0889 Q759.7617,168.437 759.7617,165.3159 Q759.7617,162.1865 761.0815,160.5347 Q762.4014,158.8828 764.9082,158.8828 Q765.6138,158.8828 766.2612,159.0322 Q766.9087,159.1816 767.4731,159.4805 L767.4731,162.2031 Q766.8423,161.6221 766.2488,161.3523 Q765.6553,161.0825 765.0244,161.0825 Q763.6797,161.0825 762.9949,162.1492 Q762.3101,163.2158 762.3101,165.3159 Q762.3101,167.4077 762.9949,168.4744 Q763.6797,169.541 765.0244,169.541 Q765.6553,169.541 766.2488,169.2712 Q766.8423,169.0015 767.4731,168.4204 Z " fill="#000000"/><text fill="#000000" font-family="sans-serif" font-size="14" lengthAdjust="spacing" textLength="96" x="779" y="170.291">runtime_error</text><line style="stroke:#181818;stroke-width:0.5;" x1="751" x2="877" y1="181" y2="181"/><line style="stroke:#181818;stroke-width:0.5;" x1="751" x2="877" y1="189" y2="189"/></g><!--MD5=[9c566c8f877b6f3e00d053fe3040ebba]
class domain_error--><g id="elem_domain_error"><rect fill="#F1F1F1" height="48" id="domain_error" rx="2.5" ry="2.5" style="stroke:#181818;stroke-width:0.5;" width="126" x="22" y="257"/><ellipse cx="37" cy="273" fill="#ADD1B2" rx="11" ry="11" style="stroke:#181818;stroke-width:1.0;"/><path d="M39.4731,279.1431 Q38.8921,279.4419 38.2529,279.5913 Q37.6138,279.7407 36.9082,279.7407 Q34.4014,279.7407 33.0815,278.0889 Q31.7617,276.437 31.7617,273.3159 Q31.7617,270.1865 33.0815,268.5347 Q34.4014,266.8828 36.9082,266.8828 Q37.6138,266.8828 38.2612,267.0322 Q38.9087,267.1816 39.4731,267.4805 L39.4731,270.2031 Q38.8423,269.6221 38.2488,269.3523 Q37.6553,269.0825 37.0244,269.0825 Q35.6797,269.0825 34.9949,270.1492 Q34.3101,271.2158 34.3101,273.3159 Q34.3101,275.4077 34.9949,276.4744 Q35.6797,277.541 37.0244,277.541 Q37.6553,277.541 38.2488,277.2712 Q38.8423,277.0015 39.4731,276.4204 Z " fill="#000000"/><text fill="#000000" font-family="sans-serif" font-size="14" lengthAdjust="spacing" textLength="94" x="51" y="278.291">domain_error</text><line style="stroke:#181818;stroke-width:0.5;" x1="23" x2="147" y1="289" y2="289"/><line style="stroke:#181818;stroke-width:0.5;" x1="23" x2="147" y1="297" y2="297"/></g><!--MD5=[1fd242045425a9b47dc73ddb6777b560]
class invalid_argument--><g id="elem_invalid_argument"><rect fill="#F1F1F1" height="48" id="invalid_argument" rx="2.5" ry="2.5" style="stroke:#181818;stroke-width:0.5;" width="151" x="182.5" y="257"/><ellipse cx="197.5" cy="273" fill="#ADD1B2" rx="11" ry="11" style="stroke:#181818;stroke-width:1.0;"/><path d="M199.9731,279.1431 Q199.3921,279.4419 198.7529,279.5913 Q198.1138,279.7407 197.4082,279.7407 Q194.9014,279.7407 193.5815,278.0889 Q192.2617,276.437 192.2617,273.3159 Q192.2617,270.1865 193.5815,268.5347 Q194.9014,266.8828 197.4082,266.8828 Q198.1138,266.8828 198.7612,267.0322 Q199.4087,267.1816 199.9731,267.4805 L199.9731,270.2031 Q199.3423,269.6221 198.7488,269.3523 Q198.1553,269.0825 197.5244,269.0825 Q196.1797,269.0825 195.4949,270.1492 Q194.8101,271.2158 194.8101,273.3159 Q194.8101,275.4077 195.4949,276.4744 Q196.1797,277.541 197.5244,277.541 Q198.1553,277.541 198.7488,277.2712 Q199.3423,277.0015 199.9731,276.4204 Z " fill="#000000"/><text fill="#000000" font-family="sans-serif" font-size="14" lengthAdjust="spacing" textLength="119" x="211.5" y="278.291">invalid_argument</text><line style="stroke:#181818;stroke-width:0.5;" x1="183.5" x2="332.5" y1="289" y2="289"/><line style="stroke:#181818;stroke-width:0.5;" x1="183.5" x2="332.5" y1="297" y2="297"/></g><!--MD5=[4bedc79a2b3721fdbf00c84baa0efe5c]
class length_error--><g id="elem_length_error"><rect fill="#F1F1F1" height="48" id="length_error" rx="2.5" ry="2.5" style="stroke:#181818;stroke-width:0.5;" width="118" x="368" y="257"/><ellipse cx="383" cy="273" fill="#ADD1B2" rx="11" ry="11" style="stroke:#181818;stroke-width:1.0;"/><path d="M385.4731,279.1431 Q384.8921,279.4419 384.2529,279.5913 Q383.6138,279.7407 382.9082,279.7407 Q380.4014,279.7407 379.0815,278.0889 Q377.7617,276.437 377.7617,273.3159 Q377.7617,270.1865 379.0815,268.5347 Q380.4014,266.8828 382.9082,266.8828 Q383.6138,266.8828 384.2612,267.0322 Q384.9087,267.1816 385.4731,267.4805 L385.4731,270.2031 Q384.8423,269.6221 384.2488,269.3523 Q383.6553,269.0825 383.0244,269.0825 Q381.6797,269.0825 380.9949,270.1492 Q380.3101,271.2158 380.3101,273.3159 Q380.3101,275.4077 380.9949,276.4744 Q381.6797,277.541 383.0244,277.541 Q383.6553,277.541 384.2488,277.2712 Q384.8423,277.0015 385.4731,276.4204 Z " fill="#000000"/><text fill="#000000" font-family="sans-serif" font-size="14" lengthAdjust="spacing" textLength="86" x="397" y="278.291">length_error</text><line style="stroke:#181818;stroke-width:0.5;" x1="369" x2="485" y1="289" y2="289"/><line style="stroke:#181818;stroke-width:0.5;" x1="369" x2="485" y1="297" y2="297"/></g><!--MD5=[3aa6bc10bb222a03c359617134bebec8]
class out_of_range--><g id="elem_out_of_range"><rect fill="#F1F1F1" height="48" id="out_of_range" rx="2.5" ry="2.5" style="stroke:#181818;stroke-width:0.5;" width="123" x="520.5" y="257"/><ellipse cx="535.5" cy="273" fill="#ADD1B2" rx="11" ry="11" style="stroke:#181818;stroke-width:1.0;"/><path d="M537.9731,279.1431 Q537.3921,279.4419 536.7529,279.5913 Q536.1138,279.7407 535.4082,279.7407 Q532.9014,279.7407 531.5815,278.0889 Q530.2617,276.437 530.2617,273.3159 Q530.2617,270.1865 531.5815,268.5347 Q532.9014,266.8828 535.4082,266.8828 Q536.1138,266.8828 536.7612,267.0322 Q537.4087,267.1816 537.9731,267.4805 L537.9731,270.2031 Q537.3423,269.6221 536.7488,269.3523 Q536.1553,269.0825 535.5244,269.0825 Q534.1797,269.0825 533.4949,270.1492 Q532.8101,271.2158 532.8101,273.3159 Q532.8101,275.4077 533.4949,276.4744 Q534.1797,277.541 535.5244,277.541 Q536.1553,277.541 536.7488,277.2712 Q537.3423,277.0015 537.9731,276.4204 Z " fill="#000000"/><text fill="#000000" font-family="sans-serif" font-size="14" lengthAdjust="spacing" textLength="91" x="549.5" y="278.291">out_of_range</text><line style="stroke:#181818;stroke-width:0.5;" x1="521.5" x2="642.5" y1="289" y2="289"/><line style="stroke:#181818;stroke-width:0.5;" x1="521.5" x2="642.5" y1="297" y2="297"/></g><!--MD5=[d939e21dd1b2dec12614adb1ced0972f]
class range_error--><g id="elem_range_error"><rect fill="#F1F1F1" height="48" id="range_error" rx="2.5" ry="2.5" style="stroke:#181818;stroke-width:0.5;" width="114" x="678" y="257"/><ellipse cx="693" cy="273" fill="#ADD1B2" rx="11" ry="11" style="stroke:#181818;stroke-width:1.0;"/><path d="M695.4731,279.1431 Q694.8921,279.4419 694.2529,279.5913 Q693.6138,279.7407 692.9082,279.7407 Q690.4014,279.7407 689.0815,278.0889 Q687.7617,276.437 687.7617,273.3159 Q687.7617,270.1865 689.0815,268.5347 Q690.4014,266.8828 692.9082,266.8828 Q693.6138,266.8828 694.2612,267.0322 Q694.9087,267.1816 695.4731,267.4805 L695.4731,270.2031 Q694.8423,269.6221 694.2488,269.3523 Q693.6553,269.0825 693.0244,269.0825 Q691.6797,269.0825 690.9949,270.1492 Q690.3101,271.2158 690.3101,273.3159 Q690.3101,275.4077 690.9949,276.4744 Q691.6797,277.541 693.0244,277.541 Q693.6553,277.541 694.2488,277.2712 Q694.8423,277.0015 695.4731,276.4204 Z " fill="#000000"/><text fill="#000000" font-family="sans-serif" font-size="14" lengthAdjust="spacing" textLength="82" x="707" y="278.291">range_error</text><line style="stroke:#181818;stroke-width:0.5;" x1="679" x2="791" y1="289" y2="289"/><line style="stroke:#181818;stroke-width:0.5;" x1="679" x2="791" y1="297" y2="297"/></g><!--MD5=[0f3f14d0bf47ad13f11178265caf7ab3]
class overflow_error--><g id="elem_overflow_error"><rect fill="#F1F1F1" height="48" id="overflow_error" rx="2.5" ry="2.5" style="stroke:#181818;stroke-width:0.5;" width="133" x="826.5" y="257"/><ellipse cx="841.5" cy="273" fill="#ADD1B2" rx="11" ry="11" style="stroke:#181818;stroke-width:1.0;"/><path d="M843.9731,279.1431 Q843.3921,279.4419 842.7529,279.5913 Q842.1138,279.7407 841.4082,279.7407 Q838.9014,279.7407 837.5815,278.0889 Q836.2617,276.437 836.2617,273.3159 Q836.2617,270.1865 837.5815,268.5347 Q838.9014,266.8828 841.4082,266.8828 Q842.1138,266.8828 842.7612,267.0322 Q843.4087,267.1816 843.9731,267.4805 L843.9731,270.2031 Q843.3423,269.6221 842.7488,269.3523 Q842.1553,269.0825 841.5244,269.0825 Q840.1797,269.0825 839.4949,270.1492 Q838.8101,271.2158 838.8101,273.3159 Q838.8101,275.4077 839.4949,276.4744 Q840.1797,277.541 841.5244,277.541 Q842.1553,277.541 842.7488,277.2712 Q843.3423,277.0015 843.9731,276.4204 Z " fill="#000000"/><text fill="#000000" font-family="sans-serif" font-size="14" lengthAdjust="spacing" textLength="101" x="855.5" y="278.291">overflow_error</text><line style="stroke:#181818;stroke-width:0.5;" x1="827.5" x2="958.5" y1="289" y2="289"/><line style="stroke:#181818;stroke-width:0.5;" x1="827.5" x2="958.5" y1="297" y2="297"/></g><!--MD5=[d3487a5266b09660760279be47a0078a]
class underflow_error--><g id="elem_underflow_error"><rect fill="#F1F1F1" height="48" id="underflow_error" rx="2.5" ry="2.5" style="stroke:#181818;stroke-width:0.5;" width="144" x="994" y="257"/><ellipse cx="1009" cy="273" fill="#ADD1B2" rx="11" ry="11" style="stroke:#181818;stroke-width:1.0;"/><path d="M1011.4731,279.1431 Q1010.8921,279.4419 1010.2529,279.5913 Q1009.6138,279.7407 1008.9082,279.7407 Q1006.4014,279.7407 1005.0815,278.0889 Q1003.7617,276.437 1003.7617,273.3159 Q1003.7617,270.1865 1005.0815,268.5347 Q1006.4014,266.8828 1008.9082,266.8828 Q1009.6138,266.8828 1010.2612,267.0322 Q1010.9087,267.1816 1011.4731,267.4805 L1011.4731,270.2031 Q1010.8423,269.6221 1010.2488,269.3523 Q1009.6553,269.0825 1009.0244,269.0825 Q1007.6797,269.0825 1006.9949,270.1492 Q1006.3101,271.2158 1006.3101,273.3159 Q1006.3101,275.4077 1006.9949,276.4744 Q1007.6797,277.541 1009.0244,277.541 Q1009.6553,277.541 1010.2488,277.2712 Q1010.8423,277.0015 1011.4731,276.4204 Z " fill="#000000"/><text fill="#000000" font-family="sans-serif" font-size="14" lengthAdjust="spacing" textLength="112" x="1023" y="278.291">underflow_error</text><line style="stroke:#181818;stroke-width:0.5;" x1="995" x2="1137" y1="289" y2="289"/><line style="stroke:#181818;stroke-width:0.5;" x1="995" x2="1137" y1="297" y2="297"/></g><!--MD5=[9f642444a20bfe65cde5b0f75b563915]
reverse link exception to logic_failure--><g id="link_exception_logic_failure"><path codeLine="3" d="M529.93,101.15 C507.27,116.75 481.21,134.69 460.98,148.61 " fill="none" id="exception-backto-logic_failure" style="stroke:#181818;stroke-width:1.0;"/><polygon fill="none" points="525.76,94.84,546.2,89.26,533.7,106.37,525.76,94.84" style="stroke:#181818;stroke-width:1.0;"/></g><!--MD5=[127d961fb7764c69ceedbae16e1bf605]
reverse link exception to runtime_error--><g id="link_exception_runtime_error"><path codeLine="4" d="M649.92,97.35 C686.02,113.78 729.49,133.55 762.61,148.62 " fill="none" id="exception-backto-runtime_error" style="stroke:#181818;stroke-width:1.0;"/><polygon fill="none" points="647.58,103.52,632.27,88.87,653.37,90.78,647.58,103.52" style="stroke:#181818;stroke-width:1.0;"/></g><!--MD5=[4bb9367c8708d57c2d5617fa727d181c]
reverse link logic_failure to domain_error--><g id="link_logic_failure_domain_error"><path codeLine="6" d="M348.54,198.32 C287.85,217.13 204.91,242.84 148.39,260.35 " fill="none" id="logic_failure-backto-domain_error" style="stroke:#181818;stroke-width:1.0;"/><polygon fill="none" points="346.42,191.34,367.6,192.1,350.57,204.71,346.42,191.34" style="stroke:#181818;stroke-width:1.0;"/></g><!--MD5=[3d4054ed85aab7419ef33c43d95f2d4e]
reverse link logic_failure to invalid_argument--><g id="link_logic_failure_invalid_argument"><path codeLine="7" d="M372.43,208.23 C347.22,224.04 317.93,242.41 295.29,256.61 " fill="none" id="logic_failure-backto-invalid_argument" style="stroke:#181818;stroke-width:1.0;"/><polygon fill="none" points="368.25,201.96,388.91,197.26,375.69,213.82,368.25,201.96" style="stroke:#181818;stroke-width:1.0;"/></g><!--MD5=[99f9458d2e277e126a101503a1f843fe]
reverse link logic_failure to length_error--><g id="link_logic_failure_length_error"><path codeLine="8" d="M427,218.24 C427,231.48 427,245.48 427,256.79 " fill="none" id="logic_failure-backto-length_error" style="stroke:#181818;stroke-width:1.0;"/><polygon fill="none" points="420,218.26,427,198.26,434,218.26,420,218.26" style="stroke:#181818;stroke-width:1.0;"/></g><!--MD5=[4990283011c17307fcb4427634f21aab]
reverse link logic_failure to out_of_range--><g id="link_logic_failure_out_of_range"><path codeLine="9" d="M478.06,208.92 C500.95,224.57 527.34,242.62 547.8,256.61 " fill="none" id="logic_failure-backto-out_of_range" style="stroke:#181818;stroke-width:1.0;"/><polygon fill="none" points="474.57,214.33,462.02,197.26,482.48,202.77,474.57,214.33" style="stroke:#181818;stroke-width:1.0;"/></g><!--MD5=[ed7f1e5f564bdd8405cd38c716cc2fdd]
reverse link runtime_error to range_error--><g id="link_runtime_error_range_error"><path codeLine="11" d="M784.26,213.91 C773.47,228.38 761.65,244.24 752.3,256.79 " fill="none" id="runtime_error-backto-range_error" style="stroke:#181818;stroke-width:1.0;"/><polygon fill="none" points="779.1,210.12,796.66,198.26,790.32,218.48,779.1,210.12" style="stroke:#181818;stroke-width:1.0;"/></g><!--MD5=[0cbad150490d33e68b1716bcb9641b4b]
reverse link runtime_error to overflow_error--><g id="link_runtime_error_overflow_error"><path codeLine="12" d="M843.74,213.91 C854.53,228.38 866.35,244.24 875.7,256.79 " fill="none" id="runtime_error-backto-overflow_error" style="stroke:#181818;stroke-width:1.0;"/><polygon fill="none" points="837.68,218.48,831.34,198.26,848.9,210.12,837.68,218.48" style="stroke:#181818;stroke-width:1.0;"/></g><!--MD5=[3f879097bc74bc88378f9c3dd5a2a3b6]
reverse link runtime_error to underflow_error--><g id="link_runtime_error_underflow_error"><path codeLine="13" d="M888.91,205.51 C927.92,221.92 974.8,241.64 1010.53,256.67 " fill="none" id="runtime_error-backto-underflow_error" style="stroke:#181818;stroke-width:1.0;"/><polygon fill="none" points="886.34,211.6,870.61,197.39,891.76,198.7,886.34,211.6" style="stroke:#181818;stroke-width:1.0;"/></g><!--MD5=[0dca95ee4dd377a048aaaa8f79274056]
@startuml Exception

package std {
    exception <|- - logic_failure
    exception <|- - runtime_error

    logic_failure <|- - domain_error
    logic_failure <|- - invalid_argument
    logic_failure <|- - length_error
    logic_failure <|- - out_of_range

    runtime_error <|- - range_error
    runtime_error <|- - overflow_error
    runtime_error <|- - underflow_error
}

@enduml

PlantUML version 1.2022.7(Mon Aug 22 13:01:30 EDT 2022)
(GPL source distribution)
Java Runtime: OpenJDK Runtime Environment
JVM: OpenJDK 64-Bit Server VM
Default Encoding: UTF-8
Language: fr
Country: CA
--></g></svg>