<?xml version="1.0" encoding="us-ascii" standalone="no"?><svg xmlns="http://www.w3.org/2000/svg" xmlns:xlink="http://www.w3.org/1999/xlink" contentStyleType="text/css" height="346px" preserveAspectRatio="none" style="width:516px;height:346px;background:#FFFFFF;" version="1.1" viewBox="0 0 516 346" width="516px" zoomAndPan="magnify"><defs/><g><!--class ListeEntiers--><g id="elem_ListeEntiers"><rect codeLine="1" fill="#F1F1F1" height="325.0469" id="ListeEntiers" rx="2.5" ry="2.5" style="stroke:#181818;stroke-width:0.5;" width="495" x="7" y="7"/><ellipse cx="207.25" cy="23" fill="#ADD1B2" rx="11" ry="11" style="stroke:#181818;stroke-width:1.0;"/><path d="M209.5938,18.6719 C208.6563,18.2344 208.0625,18.0938 207.1875,18.0938 C204.5625,18.0938 202.5625,20.1719 202.5625,22.8906 L202.5625,24.0156 C202.5625,26.5938 204.6719,28.4844 207.5625,28.4844 C208.7813,28.4844 209.9375,28.1875 210.6875,27.6406 C211.2656,27.2344 211.5938,26.7813 211.5938,26.3906 C211.5938,25.9375 211.2031,25.5469 210.7344,25.5469 C210.5156,25.5469 210.3125,25.625 210.125,25.8125 C209.6719,26.2969 209.6719,26.2969 209.4844,26.3906 C209.0625,26.6563 208.375,26.7813 207.6094,26.7813 C205.5625,26.7813 204.2656,25.6875 204.2656,23.9844 L204.2656,22.8906 C204.2656,21.1094 205.5156,19.7969 207.25,19.7969 C207.8281,19.7969 208.4375,19.9531 208.9063,20.2031 C209.3906,20.4844 209.5625,20.7031 209.6563,21.1094 C209.7188,21.5156 209.75,21.6406 209.8906,21.7656 C210.0313,21.9063 210.2656,22.0156 210.4844,22.0156 C210.75,22.0156 211.0156,21.875 211.1875,21.6563 C211.2969,21.5 211.3281,21.3125 211.3281,20.8906 L211.3281,19.4688 C211.3281,19.0313 211.3125,18.9063 211.2188,18.75 C211.0625,18.4844 210.7813,18.3438 210.4844,18.3438 C210.1875,18.3438 209.9844,18.4375 209.7656,18.75 L209.5938,18.6719 Z " fill="#000000"/><text fill="#000000" font-family="sans-serif" font-size="14" lengthAdjust="spacing" textLength="86" x="227.75" y="27.8467">ListeEntiers</text><line style="stroke:#181818;stroke-width:0.5;" x1="8" x2="501" y1="39" y2="39"/><rect fill="none" height="6" style="stroke:#C82930;stroke-width:1.0;" width="6" x="15" y="49.6484"/><text fill="#000000" font-family="sans-serif" font-size="14" lengthAdjust="spacing" textLength="102" x="27" y="55.9951">int *m_valeurs</text><rect fill="none" height="6" style="stroke:#C82930;stroke-width:1.0;" width="6" x="15" y="65.9453"/><text fill="#000000" font-family="sans-serif" font-size="14" lengthAdjust="spacing" textLength="107" x="27" y="72.292">int m_capacite</text><rect fill="none" height="6" style="stroke:#C82930;stroke-width:1.0;" width="6" x="15" y="82.2422"/><text fill="#000000" font-family="sans-serif" font-size="14" lengthAdjust="spacing" textLength="132" x="27" y="88.5889">int m_nbElements</text><line style="stroke:#181818;stroke-width:0.5;" x1="8" x2="501" y1="95.8906" y2="95.8906"/><ellipse cx="18" cy="109.5391" fill="#84BE84" rx="3" ry="3" style="stroke:#038048;stroke-width:1.0;"/><text fill="#000000" font-family="sans-serif" font-size="14" lengthAdjust="spacing" textLength="315" x="27" y="112.8857">ListeEntiers(const int&amp; p_capaciteMin = 23)</text><ellipse cx="18" cy="125.8359" fill="#84BE84" rx="3" ry="3" style="stroke:#038048;stroke-width:1.0;"/><text fill="#000000" font-family="sans-serif" font-size="14" lengthAdjust="spacing" textLength="347" x="27" y="129.1826">ListeEntiers(const ListeEntiers &amp;p_listeACopier)</text><ellipse cx="18" cy="142.1328" fill="#84BE84" rx="3" ry="3" style="stroke:#038048;stroke-width:1.0;"/><text fill="#000000" font-family="sans-serif" font-size="14" lengthAdjust="spacing" textLength="331" x="27" y="145.4795">ListeEntiers(ListeEntiers &amp;&amp;p_listeADeplacer)</text><ellipse cx="18" cy="158.4297" fill="#84BE84" rx="3" ry="3" style="stroke:#038048;stroke-width:1.0;"/><text fill="#000000" font-family="sans-serif" font-size="14" lengthAdjust="spacing" textLength="107" x="27" y="161.7764">~ListeEntiers()</text><ellipse cx="18" cy="174.7266" fill="#84BE84" rx="3" ry="3" style="stroke:#038048;stroke-width:1.0;"/><text fill="#000000" font-family="sans-serif" font-size="14" lengthAdjust="spacing" textLength="255" x="27" y="178.0732">void ajouterFin(const int&amp; p_valeur)</text><ellipse cx="18" cy="191.0234" fill="#84BE84" rx="3" ry="3" style="stroke:#038048;stroke-width:1.0;"/><text fill="#000000" font-family="sans-serif" font-size="14" lengthAdjust="spacing" textLength="139" x="27" y="194.3701">void supprimerFin()</text><ellipse cx="18" cy="207.3203" fill="#84BE84" rx="3" ry="3" style="stroke:#038048;stroke-width:1.0;"/><text fill="#000000" font-family="sans-serif" font-size="14" lengthAdjust="spacing" textLength="227" x="27" y="210.667">int obtenir(const int&amp; p_indice)</text><ellipse cx="18" cy="223.6172" fill="#84BE84" rx="3" ry="3" style="stroke:#038048;stroke-width:1.0;"/><text fill="#000000" font-family="sans-serif" font-size="14" lengthAdjust="spacing" textLength="203" x="27" y="226.9639">int nombreElements() const</text><ellipse cx="18" cy="239.9141" fill="#84BE84" rx="3" ry="3" style="stroke:#038048;stroke-width:1.0;"/><text fill="#000000" font-family="sans-serif" font-size="14" lengthAdjust="spacing" textLength="140" x="27" y="243.2607">int capacite() const</text><ellipse cx="18" cy="256.2109" fill="#84BE84" rx="3" ry="3" style="stroke:#038048;stroke-width:1.0;"/><text fill="#000000" font-family="sans-serif" font-size="14" lengthAdjust="spacing" textLength="441" x="27" y="259.5576">ListeEntiers &amp; operator=(const ListeEntiers &amp;p_listeACopier)</text><ellipse cx="18" cy="272.5078" fill="#84BE84" rx="3" ry="3" style="stroke:#038048;stroke-width:1.0;"/><text fill="#000000" font-family="sans-serif" font-size="14" lengthAdjust="spacing" textLength="425" x="27" y="275.8545">ListeEntiers &amp; operator=(ListeEntiers &amp;&amp;p_listeADeplacer)</text><ellipse cx="18" cy="288.8047" fill="#84BE84" rx="3" ry="3" style="stroke:#038048;stroke-width:1.0;"/><text fill="#000000" font-family="sans-serif" font-size="14" lengthAdjust="spacing" textLength="323" x="27" y="292.1514">void parcourir(void (*p_fonction)(const int&amp;))</text><ellipse cx="18" cy="305.1016" fill="#84BE84" rx="3" ry="3" style="stroke:#038048;stroke-width:1.0;"/><text fill="#000000" font-family="sans-serif" font-size="14" lengthAdjust="spacing" textLength="469" x="27" y="308.4482">ListeEntiers concatener(const ListeEntiers &amp;p_listeAConcatener)</text><ellipse cx="18" cy="321.3984" fill="#84BE84" rx="3" ry="3" style="stroke:#038048;stroke-width:1.0;"/><text fill="#000000" font-family="sans-serif" font-size="14" lengthAdjust="spacing" textLength="436" x="27" y="324.7451">ListeEntiers concatener(ListeEntiers &amp;&amp;p_listeAConcatener)</text></g><!--SRC=[dP3DJWCn38JlF8LFrMuH5pZtWA2Su1bMsTH8HeaTETvUglBix8zssKWj88uPV-DunWUNCxnIDjop4Mg6qmt07H0RR6DpT04xpOiK6- -IysIuahZT1up8Dd2tnRRA2sSRk0sanVj633kuVwYlySL1czI4uVtu9AaNBfXAVE6VCGNdPyTdOPcqez01t8TqXlf2N5uxPL-1kKj9AKxef0y5I6l8fAMP-40Ulo6Ms2hEFLKrZFGodfif1cKia8JgJ7JthvAA1NygRCoSd7hfj8ytFgjjQjw5lP5mlKfSN_YmdthNLuFwoy4pzlEEApUlxUSl]--></g></svg>